<svg width="36" height="36" viewBox="0 0 36 36" fill="none" xmlns="http://www.w3.org/2000/svg">
<path d="M27.873 0H7.22777C3.23598 0 0 3.265 0 7.29258V28.1229C0 32.1505 3.23598 35.4155 7.22777 35.4155H27.873C31.8648 35.4155 35.1008 32.1505 35.1008 28.1229V7.29258C35.1008 3.265 31.8648 0 27.873 0Z" fill="#222222"/>
<path d="M19.2693 19.8106V30.6177H14.3439V19.8106H10.2568V15.4301H14.3439V13.8299C14.3439 7.90838 16.791 4.79771 21.9785 4.79771C23.5674 4.79771 23.9658 5.05359 24.8392 5.2646V9.60024C23.8607 9.42456 23.5872 9.33577 22.5738 9.33577C21.3682 9.33577 20.7313 9.67567 20.1456 10.3536C19.5598 11.0324 19.2674 12.2087 19.2674 13.8824V15.4301H24.843L23.345 19.8106H19.2674H19.2693Z" fill="#E4DDCD"/>
</svg>
