<svg width="36" height="36" viewBox="0 0 36 36" fill="none" xmlns="http://www.w3.org/2000/svg">
<path d="M28.5061 -7.62939e-05H7.86083C3.86904 -7.62939e-05 0.633057 3.26492 0.633057 7.29251V28.1229C0.633057 32.1504 3.86904 35.4154 7.86083 35.4154H28.5061C32.4979 35.4154 35.7338 32.1504 35.7338 28.1229V7.29251C35.7338 3.26492 32.4979 -7.62939e-05 28.5061 -7.62939e-05Z" fill="#222222"/>
<path d="M25.8537 29.3317H10.5143C8.3908 29.3317 6.66382 27.5892 6.66382 25.4467V9.96979C6.66382 7.82727 8.3908 6.08481 10.5143 6.08481H25.8537C27.9771 6.08481 29.7041 7.82727 29.7041 9.96979V25.4467C29.7041 27.5892 27.9771 29.3317 25.8537 29.3317ZM10.5143 7.35562C9.08632 7.35562 7.92428 8.52808 7.92428 9.96884V25.4458C7.92428 26.8865 9.08632 28.059 10.5143 28.059H25.8537C27.2816 28.059 28.4437 26.8865 28.4437 25.4458V9.96979C28.4437 8.52904 27.2816 7.35657 25.8537 7.35657H10.5143V7.35562Z" fill="#E4DDCD"/>
<path d="M18.1839 23.6727C16.6046 23.6727 15.1208 23.0521 14.0042 21.9254C12.8875 20.7988 12.2725 19.3007 12.2725 17.7082C12.2725 16.1156 12.8875 14.6176 14.0042 13.4909C15.1208 12.3643 16.6055 11.7437 18.1839 11.7437C19.7624 11.7437 21.2471 12.3643 22.3637 13.4909C23.4803 14.6176 24.0954 16.1156 24.0954 17.7082C24.0954 19.3007 23.4803 20.7988 22.3637 21.9254C21.2471 23.0521 19.7624 23.6727 18.1839 23.6727ZM18.1839 13.0145C15.6195 13.0145 13.5329 15.1198 13.5329 17.7072C13.5329 20.2947 15.6195 22.3999 18.1839 22.3999C20.7484 22.3999 22.835 20.2947 22.835 17.7072C22.835 15.1198 20.7484 13.0145 18.1839 13.0145Z" fill="#E4DDCD"/>
</svg>
