<svg width="36" height="36" viewBox="0 0 36 36" fill="none" xmlns="http://www.w3.org/2000/svg">
<path d="M28.7722 -7.62939e-05H8.12694C4.13515 -7.62939e-05 0.89917 3.26492 0.89917 7.29251V28.1229C0.89917 32.1504 4.13515 35.4154 8.12694 35.4154H28.7722C32.764 35.4154 36 32.1504 36 28.1229V7.29251C36 3.26492 32.764 -7.62939e-05 28.7722 -7.62939e-05Z" fill="#222222"/>
<path d="M13.0632 14.314H8.95532V27.5291H13.0632V14.314Z" fill="#E4DDCD"/>
<path d="M24.1658 14.0199C24.0106 14.0027 23.8516 13.9903 23.6898 13.9836C21.3903 13.8891 20.0901 15.2659 19.6415 15.8531C19.5223 16.0106 19.4627 16.1118 19.4627 16.1118V14.3436H15.5337V27.5586H19.6415V21.3497C19.6415 20.4532 19.5725 19.4946 20.0172 18.6802C20.3938 17.9918 21.0742 17.6471 21.8445 17.6471C24.1128 17.6471 24.1667 19.718 24.1667 19.9147V27.6188H28.2746V18.9991C28.2746 16.0498 26.7889 14.3054 24.1667 14.0199H24.1658Z" fill="#E4DDCD"/>
<path d="M13.3201 10.7493C13.6223 9.45751 12.8294 8.16319 11.5491 7.85831C10.2688 7.55343 8.98602 8.35344 8.68385 9.64519C8.38168 10.9369 9.17458 12.2313 10.4548 12.5361C11.7351 12.841 13.0179 12.041 13.3201 10.7493Z" fill="#E4DDCD"/>
</svg>
