<svg width="36" height="36" viewBox="0 0 36 36" fill="none" xmlns="http://www.w3.org/2000/svg">
<path d="M28.1391 -7.62939e-05H7.49389C3.5021 -7.62939e-05 0.266113 3.26492 0.266113 7.29251V28.1229C0.266113 32.1504 3.5021 35.4154 7.49389 35.4154H28.1391C32.1309 35.4154 35.3669 32.1504 35.3669 28.1229V7.29251C35.3669 3.26492 32.1309 -7.62939e-05 28.1391 -7.62939e-05Z" fill="#222222"/>
<path d="M7.66699 24.0832C9.85293 24.2121 11.7597 23.688 13.6277 22.3226C11.7455 21.998 10.4368 21.133 9.72518 19.3304C10.2712 19.2502 10.7585 19.3962 11.3263 19.1719C9.47252 18.3527 8.27262 17.1201 8.22341 14.9909C8.80727 15.0425 9.25203 15.4263 9.95324 15.3757C8.24518 13.6924 7.72755 11.864 8.80065 9.63557C10.5806 11.7017 12.6653 13.0966 15.2042 13.7573C15.3424 13.7936 15.4805 13.8318 15.6187 13.8633C16.2764 14.0161 17.0485 14.3426 17.4469 14.293C18.132 14.2061 17.4469 13.4136 17.621 12.3825C18.1642 9.17345 21.6626 7.71742 24.2536 9.59642C25.0106 10.1454 25.6115 10.1359 26.3506 9.80456C26.7414 9.62984 27.136 9.46275 27.5978 9.26129C27.4908 10.1817 26.7963 10.681 26.2389 11.3656C26.8748 11.5117 27.3868 11.3265 27.9668 11.1403C27.7653 11.801 27.2808 12.1743 26.8341 12.5371C26.3742 12.9104 26.1906 13.3 26.1717 13.912C25.8859 23.1619 15.4701 30.3179 8.34643 24.6227C7.65564 24.0708 8.32845 24.6227 7.66794 24.0832H7.66699Z" fill="#E4DDCD"/>
</svg>
