<svg width="36" height="36" viewBox="0 0 36 36" fill="none" xmlns="http://www.w3.org/2000/svg">
<path fill-rule="evenodd" clip-rule="evenodd" d="M34.238 4.55302L24.113 0.0530234L23.625 -0.000976562L23.185 0.0420234L12.355 4.45002L2.74 0.0530234L2.25 -0.000976562C1.743 -0.000976562 1.247 0.171023 0.844 0.494023C0.311 0.920023 0 1.56502 0 2.24902V29.249C0 30.301 0.732 31.216 1.76 31.447L11.838 35.947L12.328 35.999L12.766 35.956L23.599 31.547L33.26 35.947L33.75 35.999C34.255 35.999 34.756 35.828 35.158 35.503C35.688 35.076 35.1 34.43 35.1 33.749V6.74902C35.1 5.69502 35.266 4.78102 34.238 4.55302ZM13.5 6.28402L22.5 2.69902V29.7L13.5 33.284V6.28402ZM2.25 2.24902L11.25 6.26802V33.268L2.25 29.249V2.24902ZM33.75 33.749L24.75 29.75V2.74902L33.75 6.74902V33.749Z" fill="black"/>
</svg>
