<svg width="33" height="32" viewBox="0 0 33 32" fill="none" xmlns="http://www.w3.org/2000/svg">
<g clip-path="url(#clip0_72_178)">
<path d="M13.277 0.00115967H6.00977V4.43266L13.277 3.22147V0.00115967Z" fill="#272727"/>
<path d="M29.2757 30.1238V9.14333H17.4375V30.1238H15.5625V7.26833V4.74146L3.72425 6.71446V30.1238H0.5V31.9988H32.5V30.1238H29.2757ZM24.6464 11.8394H26.6379V13.7144H24.6464V11.8394ZM24.6464 16.4105H26.6379V18.2855H24.6464V16.4105ZM24.6464 20.9816H26.6379V22.8566H24.6464V20.9816ZM24.6464 25.5527H26.6379V27.4277H24.6464V25.5527ZM20.0753 11.8394H22.0669V13.7144H20.0753V11.8394ZM20.0753 16.4105H22.0669V18.2855H20.0753V16.4105ZM20.0753 20.9816H22.0669V22.8566H20.0753V20.9816ZM20.0753 25.5527H22.0669V27.4277H20.0753V25.5527ZM10.9331 7.26833H12.9247V9.14333H10.9331V7.26833ZM10.9331 11.8394H12.9247V13.7144H10.9331V11.8394ZM10.9331 16.4105H12.9247V18.2855H10.9331V16.4105ZM10.9331 20.9816H12.9247V22.8566H10.9331V20.9816ZM6.36206 11.8394H8.35362V13.7144H6.36206V11.8394ZM6.36206 16.4105H8.35362V18.2855H6.36206V16.4105ZM6.36206 20.9816H8.35362V22.8566H6.36206V20.9816ZM6.42031 25.5527H12.8664V30.1238H10.9914V27.4277H8.29531V30.1238H6.42031V25.5527Z" fill="#272727"/>
</g>
<defs>
<clipPath id="clip0_72_178">
<rect width="32" height="32" fill="white" transform="translate(0.5)"/>
</clipPath>
</defs>
</svg>
