<svg width="33" height="32" viewBox="0 0 33 32" fill="none" xmlns="http://www.w3.org/2000/svg">
<path d="M4.22925 0H14.1042V3.45831H4.22925V0Z" fill="#272727"/>
<path d="M21.9792 20.2079C22.9959 19.5444 24.1724 19.1066 25.4376 18.9661V8.39581H21.9792V20.2079Z" fill="#272727"/>
<path d="M12.625 27.9503V22.7916H17.7837C18.3309 22.7916 18.8609 22.8666 19.3644 23.0061C19.5808 22.6193 19.8285 22.2524 20.1041 21.9087V5.33331H1.5625V32H14.2294C13.2351 30.9399 12.625 29.5151 12.625 27.9503ZM14.4375 13.5312H12.5625V9.53125H14.4375V13.5312ZM9.10419 26.8646H7.22919V22.8646H9.10419V26.8646ZM9.10419 20.1979H7.22919V16.1979H9.10419V20.1979ZM9.10419 13.5312H7.22919V9.53125H9.10419V13.5312ZM12.5625 16.1979H14.4375V20.1979H12.5625V16.1979Z" fill="#272727"/>
<path d="M21.0746 23.7922C22.2986 24.6129 23.201 25.8774 23.5498 27.3535L26.6111 24.2923L27.9369 25.6181L23.7083 29.8467V32H25.3437C28.7038 32 31.4375 29.2664 31.4375 25.9063V20.7916H26.3228C24.0911 20.7917 22.1362 21.9978 21.0746 23.7922Z" fill="#272727"/>
<path d="M21.8333 28.7163C21.8333 26.4833 20.0166 24.6666 17.7837 24.6666H14.5V27.9503C14.5 30.1833 16.3167 32 18.5497 32H21.8334V28.7163H21.8333Z" fill="#272727"/>
</svg>
