<svg width="33" height="32" viewBox="0 0 33 32" fill="none" xmlns="http://www.w3.org/2000/svg">
<g clip-path="url(#clip0_72_208)">
<path d="M29.6875 8.25H32.5V1.95994C32.5 1.58057 32.2719 1.23869 31.9213 1.09369C31.5713 0.948692 31.1675 1.02869 30.8994 1.29682L1.79695 30.3994C1.52883 30.6675 1.44883 31.0713 1.59383 31.4213C1.73883 31.7719 2.0807 32 2.46008 32H8.75008V29.5C8.75008 28.9825 9.17008 28.5625 9.68758 28.5625C10.2051 28.5625 10.6251 28.9825 10.6251 29.5V32H13.1251V29.5C13.1251 28.9825 13.5451 28.5625 14.0626 28.5625C14.5801 28.5625 15.0001 28.9825 15.0001 29.5V32H17.5001V29.5C17.5001 28.9825 17.9201 28.5625 18.4376 28.5625C18.9551 28.5625 19.3751 28.9825 19.3751 29.5V32H21.8751V29.5C21.8751 28.9825 22.2951 28.5625 22.8126 28.5625C23.3301 28.5625 23.7501 28.9825 23.7501 29.5V32H26.2501V29.5C26.2501 28.9825 26.6701 28.5625 27.1876 28.5625C27.7051 28.5625 28.1251 28.9825 28.1251 29.5V32H31.5626C32.0801 32 32.5001 31.58 32.5001 31.0625V27.625H30.0001C29.4826 27.625 29.0626 27.205 29.0626 26.6875C29.0626 26.17 29.4826 25.75 30.0001 25.75H32.5001V23.25H30.0001C29.4826 23.25 29.0626 22.83 29.0626 22.3125C29.0626 21.795 29.4826 21.375 30.0001 21.375H32.5001V18.875H30.0001C29.4826 18.875 29.0626 18.455 29.0626 17.9375C29.0626 17.42 29.4826 17 30.0001 17H32.5001V14.5H30.0001C29.4826 14.5 29.0626 14.08 29.0626 13.5625C29.0626 13.045 29.4826 12.625 30.0001 12.625H32.5001V10.125H29.6876C29.1701 10.125 28.7501 9.705 28.7501 9.1875C28.7501 8.67 29.17 8.25 29.6875 8.25ZM26.875 25.4375C26.875 25.955 26.455 26.375 25.9375 26.375H16.04C15.6606 26.375 15.3188 26.1469 15.1738 25.7963C15.0288 25.4463 15.1088 25.0425 15.3769 24.7744L25.2744 14.8769C25.5425 14.6088 25.9463 14.5288 26.2963 14.6738C26.6469 14.8188 26.875 15.1606 26.875 15.54V25.4375Z" fill="#272727"/>
<path d="M3.3932 18.1513L7.3707 22.1288L4.75195 24.7469C4.38508 25.1138 3.79133 25.1119 3.42633 24.7469L0.774454 22.095C0.406954 21.7275 0.410079 21.1338 0.774454 20.7694L3.3932 18.1513Z" fill="#272727"/>
<path d="M22.2838 6.9575C22.3713 6.9575 22.4601 6.955 22.5494 6.95L8.69637 20.8031L4.71887 16.8256L18.3894 3.155C18.4101 4.21687 18.7888 5.15687 19.4888 5.8575C20.2101 6.57806 21.1838 6.9575 22.2838 6.9575Z" fill="#272727"/>
<path d="M25.4312 1.33932L23.8287 4.71682C22.6831 5.23932 21.495 5.21182 20.8144 4.53119C20.1975 3.91432 20.1175 2.87994 20.4975 1.83807L24.1819 0.0905657C24.54 -0.0794343 24.9669 -0.00568432 25.2469 0.274316C25.5269 0.554941 25.6006 0.981191 25.4312 1.33932Z" fill="#272727"/>
</g>
<defs>
<clipPath id="clip0_72_208">
<rect width="32" height="32" fill="white" transform="translate(0.5)"/>
</clipPath>
</defs>
</svg>
