<svg width="37" height="28" viewBox="0 0 37 28" fill="none" xmlns="http://www.w3.org/2000/svg">
<path fill-rule="evenodd" clip-rule="evenodd" d="M34.687 0.5H2.312C1.036 0.5 0 1.508 0 2.75V25.25C0 26.492 1.036 27.5 2.312 27.5H34.687C35.963 27.5 36.1 26.492 36.1 25.25V2.75C36.1 1.508 35.963 0.5 34.687 0.5ZM13.135 16.312L18.505 19.863L23.843 16.286L33.052 25.25H3.947L13.135 16.312ZM2.312 23.659V9.151L11.188 15.022L2.312 23.659ZM25.776 14.989L34.687 9.024V23.659L25.776 14.989ZM34.687 2.75V6.391L34.638 6.323L18.495 17.137L2.312 6.434V2.75H34.687Z" fill="black"/>
</svg>
