<svg width="33" height="32" viewBox="0 0 33 32" fill="none" xmlns="http://www.w3.org/2000/svg">
<g clip-path="url(#clip0_72_202)">
<path d="M15.0045 25.0416H21.5983V27.4541H15.0045V25.0416Z" fill="#272727"/>
<path d="M28.8787 2.08438H25.8308V4.88944L28.8787 7.19432V2.08438Z" fill="#272727"/>
<path d="M2.95227 15.7319V31.8188H8.89521V27.4541H13.1296V23.1666H17.364V18.8317H21.5983V14.5206H28.1449L16.4942 5.77499L2.95227 15.7319Z" fill="#272727"/>
<path d="M10.7701 29.3291H17.3639V31.8188H10.7701V29.3291Z" fill="#272727"/>
<path d="M19.2389 29.3291H25.8326V31.8188H19.2389V29.3291Z" fill="#272727"/>
<path d="M0.5 12.1142V14.0471H2.0785L16.5058 3.43918L30.6373 14.0471H32.5V12.2836L16.4961 0.181183L0.5 12.1142Z" fill="#272727"/>
<path d="M27.7076 29.3291H30.0476V31.8188H27.7076V29.3291Z" fill="#272727"/>
<path d="M23.4733 16.3956H30.0476V18.8318H23.4733V16.3956Z" fill="#272727"/>
<path d="M19.2389 20.7068H25.8326V23.1666H19.2389V20.7068Z" fill="#272727"/>
<path d="M23.4733 25.0416H30.0476V27.4541H23.4733V25.0416Z" fill="#272727"/>
<path d="M27.7076 20.7068H30.0476V23.1666H27.7076V20.7068Z" fill="#272727"/>
</g>
<defs>
<clipPath id="clip0_72_202">
<rect width="32" height="32" fill="white" transform="translate(0.5)"/>
</clipPath>
</defs>
</svg>
