<svg width="33" height="32" viewBox="0 0 33 32" fill="none" xmlns="http://www.w3.org/2000/svg">
<g clip-path="url(#clip0_72_184)">
<path d="M2.37635 15.8116C2.42672 12.039 3.94309 8.51186 6.64633 5.87981C9.34945 3.24782 12.9162 1.82495 16.6885 1.87632C20.2363 1.92364 23.617 3.30475 26.1769 5.71162L24.3675 5.6875L24.3425 7.56236L29.2795 7.62824L29.3454 2.69119L27.4706 2.66619L27.4483 4.33375C24.5502 1.61501 20.7264 0.0550799 16.7135 0.00151764C12.4382 -0.0553571 8.40032 1.55501 5.33827 4.53644C2.27622 7.51786 0.558542 11.5132 0.50148 15.7866C0.468355 18.2724 0.991353 20.6624 2.05591 22.8902L3.74766 22.0817C2.80841 20.1163 2.34704 18.0067 2.37635 15.8116Z" fill="#272727"/>
<path d="M30.6236 16.1885C30.5732 19.9611 29.0569 23.4882 26.3536 26.1202C23.6505 28.7522 20.0837 30.1751 16.3115 30.1237C12.7636 30.0764 9.38302 28.6953 6.82303 26.2884L8.63252 26.3125L8.65752 24.4377L3.72048 24.3718L3.65454 29.3088L5.52941 29.3338L5.55166 27.6663C8.44971 30.385 12.2735 31.9449 16.2864 31.9985C20.5617 32.0553 24.5996 30.445 27.6616 27.4635C30.7236 24.4821 32.4414 20.4868 32.4985 16.2134C32.5316 13.7275 32.0086 11.3375 30.9441 9.1098L29.2523 9.91824C30.1916 11.8837 30.6529 13.9933 30.6236 16.1885Z" fill="#272727"/>
<path d="M14.337 11.5748L11.4724 8.36438L8.60767 11.5748H14.337Z" fill="#272727"/>
<path d="M16.8499 11.5748H25.0174L21.3856 7.50464H13.2181L16.8499 11.5748Z" fill="#272727"/>
<path d="M6.64075 19.8081V21.6831H26.9844V19.8081H25.0938V13.4498H16.9263V19.8081H15.0513V13.4498H8.5313V19.8081H6.64075ZM19.0293 15.2421H20.9043V18.0158H19.0293V15.2421Z" fill="#272727"/>
</g>
<defs>
<clipPath id="clip0_72_184">
<rect width="32" height="32" fill="white" transform="translate(0.5)"/>
</clipPath>
</defs>
</svg>
