<svg width="37" height="36" viewBox="0 0 37 36" fill="none" xmlns="http://www.w3.org/2000/svg">
<path fill-rule="evenodd" clip-rule="evenodd" d="M14.686 8.27903C14.218 2.88803 8.60199 0.244025 8.36399 0.136025C8.14199 0.0300248 7.89199 -0.000975214 7.65099 0.0400248C1.16799 1.11702 0.192994 4.89402 0.153994 5.05202C0.0999937 5.27303 0.110994 5.50103 0.178994 5.71403C7.91099 29.737 23.983 34.188 29.266 35.654L30.261 35.942L30.639 35.999L31.147 35.889C31.31 35.814 35.126 34.015 36.059 28.141C35.2 27.887 36.059 27.622 35.942 27.391C35.858 27.229 33.86 23.424 28.323 22.08C27.936 21.98 27.539 22.083 27.242 22.339C25.495 23.832 23.081 25.424 22.04 25.587C15.058 22.171 11.16 15.613 11.013 14.37C10.928 13.67 12.528 11.215 14.368 9.21803C14.601 8.96502 14.718 8.62203 14.686 8.27903Z" fill="black"/>
</svg>
