<svg width="33" height="32" viewBox="0 0 33 32" fill="none" xmlns="http://www.w3.org/2000/svg">
<g clip-path="url(#clip0_72_190)">
<path d="M7.54414 32V21.1374L5.83714 21.9275C5.42464 22.1184 5.15808 22.5355 5.15808 22.9901V31.2298C5.15808 31.6545 5.50358 32 5.92827 32H7.54414Z" fill="black"/>
<path d="M27.8419 31.2298V22.9901C27.8419 22.5355 27.5753 22.1184 27.1628 21.9275L25.4558 21.1375V32H27.0717C27.4964 32 27.8419 31.6545 27.8419 31.2298Z" fill="black"/>
<path d="M15.5625 28.7956L11.3568 19.3727L9.41919 20.2696V32H15.5625V28.7956Z" fill="black"/>
<path d="M23.5808 20.2696L21.6933 19.3959L17.4375 28.6462V32H23.5808V20.2696Z" fill="black"/>
<path d="M9.43169 9.54225H23.5682C23.9929 9.54225 24.3384 9.19675 24.3384 8.77206V7.69375C24.3384 7.26906 23.9929 6.92356 23.5682 6.92356C23.0579 6.92356 22.6413 6.51538 22.6309 6.00513C22.5876 3.87431 21.4331 1.99937 19.7327 0.933187V2.24412C19.7327 2.76187 19.313 3.18162 18.7952 3.18162C18.2775 3.18162 17.8577 2.76187 17.8577 2.24412V0.153875C17.4201 0.05325 16.9656 0 16.4999 0C16.0342 0 15.5797 0.05325 15.1422 0.153875V2.24419C15.1422 2.76194 14.7224 3.18169 14.2047 3.18169C13.6869 3.18169 13.2672 2.76194 13.2672 2.24419V0.93325C11.5668 1.99944 10.4123 3.87438 10.369 6.00519C10.3586 6.51544 9.942 6.92362 9.43169 6.92362C9.007 6.92362 8.6615 7.26912 8.6615 7.69381V8.77213C8.6615 9.19675 9.007 9.54225 9.43169 9.54225Z" fill="black"/>
<path d="M16.4999 20.9741C15.5969 20.9741 14.7301 20.8162 13.9253 20.5274L16.4778 26.2461L19.1154 20.513C18.299 20.8113 17.4182 20.9741 16.4999 20.9741Z" fill="black"/>
<path d="M16.4999 19.0991C19.6796 19.0991 22.2664 16.5122 22.2664 13.3326V11.4172H10.7334V13.3326C10.7334 16.5123 13.3202 19.0991 16.4999 19.0991Z" fill="black"/>
</g>
<defs>
<clipPath id="clip0_72_190">
<rect width="32" height="32" fill="white" transform="translate(0.5)"/>
</clipPath>
</defs>
</svg>
