<svg width="32" height="25" viewBox="0 0 32 25" fill="none" xmlns="http://www.w3.org/2000/svg">
<path d="M30.2823 0.500001H22.2631C20.5422 0.500001 18.8599 0.981641 17.4123 1.89027L15.702 2.95944L13.9916 1.89027C12.5455 0.981815 10.8612 0.499105 9.14078 0.500001H1.12157C0.501201 0.500001 0 0.988473 0 1.59308V20.9953C0 21.5999 0.501201 22.0884 1.12157 22.0884H9.14078C10.8617 22.0884 12.544 22.57 13.9916 23.4787L15.5477 24.4556C15.5933 24.4829 15.6459 24.5 15.6984 24.5C15.751 24.5 15.8036 24.4863 15.8492 24.4556L17.4053 23.4787C18.8564 22.57 20.5422 22.0884 22.2631 22.0884H30.2823C30.9027 22.0884 31.4039 21.5999 31.4039 20.9953V1.59308C31.4039 0.988473 30.9027 0.500001 30.2823 0.500001ZM9.14078 19.629H2.52353V2.95944H9.14078C10.3815 2.95944 11.5872 3.30444 12.6282 3.95688L14.3385 5.02605L14.5804 5.17976V20.9611C12.9121 20.0867 11.0474 19.629 9.14078 19.629ZM28.8804 19.629H22.2631C20.3565 19.629 18.4919 20.0867 16.8235 20.9611V5.17976L17.0654 5.02605L18.7758 3.95688C19.8167 3.30444 21.0224 2.95944 22.2631 2.95944H28.8804V19.629ZM11.6678 7.33177H5.15571C5.01902 7.33177 4.90686 7.44791 4.90686 7.58796V9.12511C4.90686 9.26516 5.01902 9.3813 5.15571 9.3813H11.6643C11.801 9.3813 11.9132 9.26516 11.9132 9.12511V7.58796C11.9167 7.44791 11.8045 7.33177 11.6678 7.33177ZM19.4872 7.58796V9.12511C19.4872 9.26516 19.5994 9.3813 19.7361 9.3813H26.2447C26.3814 9.3813 26.4935 9.26516 26.4935 9.12511V7.58796C26.4935 7.44791 26.3814 7.33177 26.2447 7.33177H19.7361C19.5994 7.33177 19.4872 7.44791 19.4872 7.58796ZM11.6678 12.114H5.15571C5.01902 12.114 4.90686 12.2301 4.90686 12.3702V13.9073C4.90686 14.0474 5.01902 14.1635 5.15571 14.1635H11.6643C11.801 14.1635 11.9132 14.0474 11.9132 13.9073V12.3702C11.9167 12.2301 11.8045 12.114 11.6678 12.114ZM26.2482 12.114H19.7361C19.5994 12.114 19.4872 12.2301 19.4872 12.3702V13.9073C19.4872 14.0474 19.5994 14.1635 19.7361 14.1635H26.2447C26.3814 14.1635 26.4935 14.0474 26.4935 13.9073V12.3702C26.497 12.2301 26.3849 12.114 26.2482 12.114Z" fill="#222222"/>
</svg>
