<svg width="25" height="25" viewBox="0 0 25 25" fill="none" xmlns="http://www.w3.org/2000/svg">
<path d="M19.992 0.5C21.1446 0.5 22.25 0.951529 23.0651 1.75526C23.8801 2.55898 24.338 3.64907 24.338 4.78571V20.2143C24.338 21.3509 23.8801 22.441 23.0651 23.2447C22.25 24.0485 21.1446 24.5 19.992 24.5H4.34608C3.19343 24.5 2.08798 24.0485 1.27294 23.2447C0.457889 22.441 0 21.3509 0 20.2143V4.78571C0 3.64907 0.457889 2.55898 1.27294 1.75526C2.08798 0.951529 3.19343 0.5 4.34608 0.5H19.992ZM19.992 2.21429H4.34608C3.65449 2.21429 2.99122 2.4852 2.50219 2.96744C2.01316 3.44968 1.73843 4.10373 1.73843 4.78571V20.2143C1.73843 20.8963 2.01316 21.5503 2.50219 22.0326C2.99122 22.5148 3.65449 22.7857 4.34608 22.7857H19.992C20.6835 22.7857 21.3468 22.5148 21.8358 22.0326C22.3249 21.5503 22.5996 20.8963 22.5996 20.2143V4.78571C22.5996 4.10373 22.3249 3.44968 21.8358 2.96744C21.3468 2.4852 20.6835 2.21429 19.992 2.21429ZM16.8941 10.7857C17.6694 10.7857 17.9493 10.8646 18.2327 11.0154C18.516 11.1646 18.7385 11.384 18.8898 11.6634C19.0428 11.9429 19.1227 12.2189 19.1227 12.9834V17.1594C19.1227 17.924 19.0428 18.2 18.8898 18.4794C18.7416 18.7556 18.5127 18.9813 18.2327 19.1274C17.951 19.2783 17.6694 19.3571 16.8941 19.3571H7.44396C6.66862 19.3571 6.38873 19.2783 6.10537 19.1274C5.82535 18.9813 5.59638 18.7556 5.44824 18.4794C5.29526 18.2017 5.21529 17.924 5.21529 17.1594V12.9834C5.21529 12.2189 5.29526 11.9429 5.44824 11.6634C5.59647 11.3874 5.82541 11.1616 6.10537 11.0154C6.38873 10.8646 6.66862 10.7857 7.44396 10.7857H16.8941ZM17.2313 12.5034H7.1067L6.96763 12.512L6.9572 12.6491V17.492L6.96589 17.6291L7.10497 17.6394H17.2313L17.3704 17.6309L17.3808 17.4937V12.6509L17.3721 12.5137L17.2331 12.5034H17.2313ZM18.2535 5.64286C18.4707 5.64246 18.6802 5.72228 18.8407 5.86659C19.0012 6.01089 19.1012 6.20923 19.1208 6.42255C19.1404 6.63587 19.0783 6.8487 18.9468 7.01914C18.8152 7.18958 18.6237 7.30527 18.41 7.34343L18.2535 7.35714H6.08451C5.8673 7.35754 5.65781 7.27772 5.49729 7.13341C5.33678 6.98911 5.23687 6.79077 5.21725 6.57745C5.19762 6.36413 5.2597 6.1513 5.39126 5.98086C5.52281 5.81042 5.71431 5.69473 5.92805 5.65657L6.08451 5.64286H18.2535Z" fill="#222222"/>
</svg>
