<svg width="17" height="25" viewBox="0 0 17 25" fill="none" xmlns="http://www.w3.org/2000/svg">
<path d="M4.9957 12.5H14.9871C15.4468 12.5 15.8392 12.6652 16.1645 12.9955C16.4897 13.3259 16.6523 13.7321 16.6523 14.2143C16.6523 14.6964 16.4875 15.1027 16.158 15.433C15.8284 15.7634 15.4381 15.9286 14.9871 15.9286H14.3626L14.6228 24.0714C14.6315 24.1875 14.5946 24.2879 14.5122 24.3728C14.4299 24.4576 14.3323 24.5 14.2195 24.5H13.3219C13.2178 24.5 13.1267 24.4576 13.0487 24.3728C12.9706 24.2879 12.9272 24.1875 12.9186 24.0714L12.6844 15.9286H5.82832L4.50133 24.0848C4.45797 24.3616 4.32354 24.5 4.09804 24.5H3.13532C3.02257 24.5 2.925 24.4576 2.84261 24.3728C2.76021 24.2879 2.72335 24.192 2.73202 24.0848L3.96794 15.9286C3.93325 15.9107 3.74244 15.8862 3.39552 15.8549C3.04859 15.8237 2.76021 15.7054 2.53037 15.5C2.30054 15.2946 2.11623 14.9375 1.97746 14.4286C1.8387 13.9018 1.72378 13.2321 1.63271 12.4196C1.54164 11.6071 1.45491 10.6183 1.37252 9.45313C1.29012 8.28795 1.23158 7.52232 1.19689 7.15625C1.15352 6.65625 0.943199 5.8683 0.565919 4.79241C0.18864 3.71652 0 2.85714 0 2.21429C0 1.80357 0.136601 1.41518 0.409804 1.04911C0.683006 0.683036 1.10148 0.5 1.66523 0.5C2.17695 0.5 2.55856 0.667411 2.81008 1.00223C3.0616 1.33705 3.29144 1.85714 3.49959 2.5625C4.28884 5.22321 4.78755 8.53571 4.9957 12.5Z" fill="#222222"/>
</svg>
