<svg width="22" height="25" viewBox="0 0 22 25" fill="none" xmlns="http://www.w3.org/2000/svg">
<path d="M4.77216 11.3H7.15824V13.7H4.77216V11.3ZM21.4747 5.3V22.1C21.4747 23.42 20.401 24.5 19.0886 24.5H2.38608C1.75325 24.5 1.14634 24.2471 0.698867 23.7971C0.25139 23.347 0 22.7365 0 22.1L0.0119304 5.3C0.0119304 3.98 1.06181 2.9 2.38608 2.9H3.57912V0.5H5.9652V2.9H15.5095V0.5H17.8956V2.9H19.0886C20.401 2.9 21.4747 3.98 21.4747 5.3ZM2.38608 7.7H19.0886V5.3H2.38608V7.7ZM19.0886 22.1V10.1H2.38608V22.1H19.0886ZM14.3165 13.7H16.7026V11.3H14.3165V13.7ZM9.54432 13.7H11.9304V11.3H9.54432V13.7Z" fill="#222222"/>
</svg>
