<svg width="159" height="178" viewBox="0 0 159 178" fill="none" xmlns="http://www.w3.org/2000/svg">
<path d="M21.8691 17.524C26.6991 17.524 30.6146 13.6011 30.6146 8.76202C30.6146 3.92289 26.6991 0 21.8691 0C17.0391 0 13.1237 3.92289 13.1237 8.76202C13.1237 13.6011 17.0391 17.524 21.8691 17.524Z" fill="#222222"/>
<path d="M20.8551 38.3511V50.8496C20.8551 55.4272 17.1475 59.1418 12.5785 59.1418H0.103661C0.100027 47.6667 9.40164 38.3511 20.8551 38.3511Z" fill="#222222"/>
<path d="M0.0999756 41.5668L0.0999756 29.0683C0.0999756 24.4907 3.80754 20.7761 8.37656 20.7761H20.8514C20.8514 32.2512 11.5534 41.5668 0.0999756 41.5668Z" fill="#222222"/>
<path d="M22.887 20.7761H35.3618C39.9308 20.7761 43.6384 24.4907 43.6384 29.0683V41.5668C32.1849 41.5668 22.887 32.2512 22.887 20.7761Z" fill="#222222"/>
<path d="M43.642 59.1418H31.1671C26.5981 59.1418 22.8905 55.4272 22.8905 50.8496V38.3511C34.344 38.3511 43.642 47.6667 43.642 59.1418Z" fill="#222222"/>
<path d="M43.1 69.0066L43.1 70.0066L0.0999756 70.0066L0.0999756 69.0066L43.1 69.0066Z" fill="#222222"/>
<path d="M0.0999756 119.45V80.4431H5.89758V118.365H15.5045C16.0716 118.365 16.7731 118.335 17.6055 118.281C18.4379 118.222 19.2921 118.11 20.1644 117.938C21.0368 117.767 21.8583 117.549 22.6361 117.283C23.4104 117.017 24.0465 116.693 24.5408 116.314V119.446H0.103608L0.0999756 119.45Z" fill="#222222"/>
<path d="M55.4553 80.443V105.269C55.4553 107.545 55.1136 109.595 54.4339 111.42C53.7505 113.24 52.7945 114.777 51.5623 116.03C50.3301 117.283 48.8907 118.241 47.2441 118.903C45.5939 119.566 43.8055 119.898 41.8718 119.898C39.938 119.898 38.0261 119.595 36.245 118.987C34.4639 118.379 32.89 117.498 31.5269 116.34C30.1602 115.181 29.0807 113.776 28.2883 112.122C27.4922 110.473 27.0924 108.605 27.0924 106.514V80.443H32.89V108.459C32.89 109.941 33.0972 111.307 33.5152 112.559C33.9296 113.812 34.5584 114.901 35.3908 115.833C36.2232 116.766 37.2373 117.487 38.4332 117.997C39.6254 118.51 40.9812 118.765 42.497 118.765C44.089 118.765 45.6048 118.444 47.0442 117.796C48.4836 117.152 49.734 116.252 50.7954 115.09C51.8567 113.932 52.7 112.556 53.3252 110.961C53.9504 109.369 54.263 107.603 54.263 105.666V89.4927C54.263 87.0236 54.034 85.0425 53.5797 83.5421C53.1253 82.0417 52.6128 81.0074 52.0458 80.4393H55.4553V80.443Z" fill="#222222"/>
<path d="M79.6672 119.905C77.1301 119.905 74.6947 119.486 72.3648 118.652C70.0348 117.818 67.9702 116.566 66.171 114.894C64.3681 113.226 62.9396 111.147 61.8782 108.659C60.8168 106.172 60.2861 103.277 60.2861 99.9774C60.2861 96.678 60.795 93.8265 61.82 91.321C62.8414 88.8155 64.2263 86.7288 65.9674 85.0572C67.7122 83.3857 69.7404 82.1256 72.0485 81.2698C74.3567 80.414 76.7848 79.9879 79.3219 79.9879C81.2557 79.9879 82.9677 80.1227 84.4652 80.3849C85.9628 80.6507 87.2023 80.953 88.191 81.2953C89.365 81.674 90.3901 82.111 91.2588 82.6063L90.0666 86.991C89.5722 85.8912 88.8525 84.8861 87.9075 83.972C87.1114 83.2145 86.0319 82.5298 84.6652 81.9217C83.3021 81.3135 81.5392 81.0112 79.3801 81.0112C77.4863 81.0112 75.7343 81.4956 74.1241 82.4643C72.5138 83.433 71.1326 84.7695 69.9767 86.4775C68.8208 88.1855 67.923 90.1884 67.276 92.4864C66.6326 94.7843 66.3091 97.2789 66.3091 99.9738C66.3091 102.669 66.6326 105.116 67.276 107.432C67.923 109.748 68.8317 111.751 70.0058 113.441C71.1798 115.131 72.572 116.46 74.1822 117.425C75.7925 118.394 77.5663 118.878 79.4964 118.878C82.0735 118.878 84.3744 118.204 86.399 116.857C88.4273 115.509 90.0484 113.754 91.2588 111.591L92.0548 116.201C91.0698 116.882 89.9503 117.494 88.7035 118.022C87.6421 118.517 86.3554 118.954 84.8396 119.333C83.3239 119.712 81.5973 119.901 79.6672 119.901" fill="#222222"/>
<path d="M100.808 107.319L98.6485 113.583C97.9651 115.444 97.5107 117.399 97.2854 119.446H95.1808L108.819 79.8713H113.537L127.12 119.446H121.039L117.063 107.833C116.645 107.756 116.172 107.68 115.641 107.603C115.111 107.527 114.58 107.468 114.049 107.432C113.519 107.396 113.017 107.366 112.545 107.345C112.068 107.326 111.683 107.315 111.381 107.315H100.811L100.808 107.319ZM116.496 106.238L108.881 83.9719L101.207 106.238H116.496Z" fill="#222222"/>
<path d="M27.8413 156.598C27.8413 166.234 21.7674 169.428 12.553 169.428C7.59141 169.428 2.93517 168.514 0.0999756 166.791L0.20174 157.512C2.42991 158.78 6.83173 160.404 11.6915 160.404C16.2969 160.404 17.9181 159.188 17.9181 157.108C17.9181 154.774 16.3478 154.064 13.3636 153.659C4.00018 152.545 0.0999756 150.211 0.0999756 141.893C0.0999756 134.438 4.65445 129.773 15.032 129.773C20.3462 129.773 24.2936 130.789 26.2201 131.751L26.0674 140.83C23.6394 139.664 19.3357 138.801 15.7917 138.801C11.946 138.801 9.97226 139.864 9.97226 141.846C9.97226 144.078 11.6443 144.686 14.7303 145.039C23.4867 146.103 27.8413 148.033 27.8413 156.602V156.598Z" fill="#222222"/>
<path d="M45.8084 129.77C58.3595 129.77 61.1947 137.578 61.1947 149.599C61.1947 157.003 60.1297 162.837 56.3349 166.184L64.179 167.859L64.0263 177.04L39.68 168.62C32.2903 166.085 30.4183 159.439 30.4183 149.603C30.4183 137.585 33.2535 129.773 45.8047 129.773L45.8084 129.77ZM45.8084 138.597C41.81 138.597 40.4942 141.132 40.4942 149.603C40.4942 158.073 41.81 160.608 45.8084 160.608C49.8067 160.608 51.1225 158.073 51.1225 149.603C51.1225 141.132 49.8067 138.597 45.8084 138.597Z" fill="#222222"/>
<path d="M83.9235 155.535V130.582H93.843V156.293C93.843 166.839 85.9481 169.428 79.1146 169.428C72.281 169.428 64.3861 166.843 64.3861 156.293V130.582H74.3056V155.531C74.3056 159.843 76.5847 160.655 79.1146 160.655C81.6445 160.655 83.9235 159.843 83.9235 155.531V155.535Z" fill="#222222"/>
<path d="M106.696 161.723L105.278 168.62H94.85L104.162 130.382H117.223L126.535 168.62H116.107L114.689 161.723H106.692H106.696ZM110.698 139.661L108.219 154.166H113.181L110.702 139.661H110.698Z" fill="#222222"/>
<path d="M128.767 168.616V130.582H141.725C155.036 130.582 158.227 138.849 158.227 149.599C158.227 160.349 155.04 168.616 141.725 168.616H128.767ZM138.686 159.945H141.772C146.734 159.945 148.05 156.446 148.05 149.599C148.05 142.753 146.734 139.253 141.772 139.253H138.686V159.945Z" fill="#222222"/>
</svg>
