<svg width="28" height="25" viewBox="0 0 28 25" fill="none" xmlns="http://www.w3.org/2000/svg">
<path d="M24.338 5.83333H18.9296V3.16667L16.2254 0.5H10.8169L8.11268 3.16667V5.83333H2.70423C1.2169 5.83333 0 7.03333 0 8.5V15.1667C0 16.1667 0.540845 17.0067 1.35211 17.4733V21.8333C1.35211 23.3133 2.55549 24.5 4.05634 24.5H22.9859C24.4868 24.5 25.6901 23.3133 25.6901 21.8333V17.46C26.4879 16.9933 27.0423 16.14 27.0423 15.1667V8.5C27.0423 7.03333 25.8254 5.83333 24.338 5.83333ZM10.8169 3.16667H16.2254V5.83333H10.8169V3.16667ZM2.70423 8.5H24.338V15.1667H17.5775V11.1667H9.46479V15.1667H2.70423V8.5ZM14.8732 16.5H12.169V13.8333H14.8732V16.5ZM22.9859 21.8333H4.05634V17.8333H9.46479V19.1667H17.5775V17.8333H22.9859V21.8333Z" fill="#222222"/>
</svg>
