<svg width="24" height="25" viewBox="0 0 24 25" fill="none" xmlns="http://www.w3.org/2000/svg">
<g clip-path="url(#clip0_334_3482)">
<path fill-rule="evenodd" clip-rule="evenodd" d="M22.8253 3.53533L16.0753 0.535329L15.75 0.499329L15.4567 0.527995L8.23667 3.46666L1.82667 0.535329L1.5 0.499329C1.162 0.499329 0.831333 0.613995 0.562667 0.829329C0.207333 1.11333 0 1.54333 0 1.99933V19.9993C0 20.7007 0.488 21.3107 1.17333 21.4647L7.892 24.4647L8.21867 24.4993L8.51067 24.4707L15.7327 21.5313L22.1733 24.4647L22.5 24.4993C22.8367 24.4993 23.1707 24.3853 23.4387 24.1687C23.792 23.884 23.4 23.4533 23.4 22.9993V4.99933C23.4 4.29666 23.5107 3.68733 22.8253 3.53533ZM9 4.68933L15 2.29933V20.3L9 22.6893V4.68933ZM1.5 1.99933L7.5 4.67866V22.6787L1.5 19.9993V1.99933ZM22.5 22.9993L16.5 20.3333V2.33266L22.5 4.99933V22.9993Z" fill="black"/>
</g>
<defs>
<clipPath id="clip0_334_3482">
<rect width="24" height="24" fill="white" transform="translate(0 0.5)"/>
</clipPath>
</defs>
</svg>
