<svg width="91" height="123" viewBox="0 0 91 123" fill="none" xmlns="http://www.w3.org/2000/svg">
<path d="M45.1649 36.3567C55.1858 36.3567 63.3093 28.218 63.3093 18.1783C63.3093 8.13872 55.1858 0 45.1649 0C35.144 0 27.0205 8.13872 27.0205 18.1783C27.0205 28.218 35.144 36.3567 45.1649 36.3567Z" fill="#E4DDCD"/>
<path d="M43.0609 79.5662V105.496C43.0609 114.994 35.3687 122.7 25.8893 122.7H0.00754547C3.8147e-06 98.8929 19.2982 79.5662 43.0609 79.5662Z" fill="#E4DDCD"/>
<path d="M0 86.2375L0 60.3074C0 50.8102 7.69214 43.1037 17.1716 43.1037H43.0533C43.0533 66.9108 23.7627 86.2375 0 86.2375Z" fill="#E4DDCD"/>
<path d="M47.2765 43.1037H73.1582C82.6377 43.1037 90.3298 50.8102 90.3298 60.3074V86.2375C66.5671 86.2375 47.2765 66.9108 47.2765 43.1037Z" fill="#E4DDCD"/>
<path d="M90.3373 122.7H64.4556C54.9761 122.7 47.284 114.994 47.284 105.496V79.5662C71.0467 79.5662 90.3373 98.8929 90.3373 122.7Z" fill="#E4DDCD"/>
</svg>
