<svg width="264" height="83" viewBox="0 0 264 83" fill="none" xmlns="http://www.w3.org/2000/svg">
<path d="M0 82.0846V1.18579H12.0241V79.8338H31.9487C33.1247 79.8338 34.5796 79.7734 36.306 79.6601C38.0323 79.5393 39.8039 79.3051 41.6132 78.9501C43.4224 78.5952 45.1262 78.142 46.7394 77.5906C48.3451 77.0393 49.6644 76.3671 50.6897 75.5816V82.077H0.00753448L0 82.0846Z" fill="#E4DDCD"/>
<path d="M114.806 1.18578V52.6737C114.806 57.3942 114.097 61.6465 112.687 65.4305C111.27 69.2069 109.287 72.3942 106.732 74.9924C104.176 77.5906 101.191 79.577 97.7758 80.9516C94.3533 82.3263 90.6443 83.0136 86.6338 83.0136C82.6232 83.0136 78.6579 82.3867 74.964 81.1254C71.2701 79.864 68.0058 78.0362 65.1789 75.6344C62.3443 73.2326 60.1054 70.3172 58.462 66.8882C56.811 63.4667 55.9818 59.5921 55.9818 55.2568V1.18578H68.0059V59.29C68.0059 62.364 68.4356 65.1964 69.3025 67.7945C70.1619 70.3927 71.4661 72.651 73.1924 74.5846C74.9188 76.5181 77.022 78.0136 79.5022 79.071C81.9749 80.1359 84.7868 80.6646 87.9304 80.6646C91.2323 80.6646 94.3759 80 97.3612 78.6556C100.347 77.3187 102.94 75.4531 105.141 73.0438C107.342 70.642 109.091 67.787 110.388 64.4788C111.685 61.1782 112.333 57.5151 112.333 53.497V19.9547C112.333 14.8338 111.858 10.7251 110.916 7.61327C109.973 4.50149 108.91 2.35647 107.734 1.17822H114.806V1.18578Z" fill="#E4DDCD"/>
<path d="M165.02 83.0287C159.758 83.0287 154.707 82.1601 149.875 80.4305C145.043 78.7009 140.761 76.1027 137.029 72.636C133.29 69.1768 130.328 64.8641 128.126 59.7054C125.925 54.5468 124.824 48.5423 124.824 41.6994C124.824 34.8565 125.88 28.9426 128.006 23.7462C130.124 18.5499 132.996 14.2221 136.607 10.7553C140.226 7.28853 144.432 4.67523 149.219 2.90031C154.006 1.12539 159.042 0.241699 164.304 0.241699C168.315 0.241699 171.865 0.521156 174.971 1.06496C178.077 1.61632 180.648 2.24321 182.698 2.95318C185.133 3.73868 187.259 4.64502 189.061 5.67221L186.588 14.7659C185.563 12.4849 184.07 10.4003 182.11 8.50454C180.459 6.93354 178.22 5.5136 175.386 4.25227C172.559 2.99094 168.903 2.36405 164.425 2.36405C160.497 2.36405 156.864 3.36859 153.524 5.37765C150.184 7.38671 147.32 10.1586 144.922 13.7009C142.525 17.2432 140.663 21.3973 139.321 26.1631C137.987 30.929 137.316 36.1027 137.316 41.6918C137.316 47.281 137.987 52.3565 139.321 57.1601C140.663 61.9638 142.548 66.1178 144.983 69.6224C147.418 73.1269 150.305 75.8837 153.645 77.8852C156.984 79.8943 160.663 80.8988 164.666 80.8988C170.011 80.8988 174.783 79.5015 178.982 76.707C183.188 73.9124 186.551 70.2719 189.061 65.7855L190.712 75.3474C188.669 76.7598 186.347 78.0287 183.761 79.1239C181.56 80.1511 178.891 81.0574 175.748 81.8429C172.604 82.6284 169.023 83.0212 165.02 83.0212" fill="#E4DDCD"/>
<path d="M208.865 56.926L204.387 69.9169C202.97 73.7764 202.027 77.8323 201.56 82.077H197.195L225.48 0H235.265L263.437 82.077H250.825L242.578 57.9909C241.711 57.8323 240.731 57.6737 239.63 57.5151C238.529 57.3565 237.429 57.2356 236.328 57.1601C235.227 57.0846 234.187 57.0242 233.207 56.9788C232.22 56.9411 231.42 56.9184 230.795 56.9184H208.872L208.865 56.926ZM241.402 54.6828L225.608 8.50453L209.694 54.6828H241.402Z" fill="#E4DDCD"/>
</svg>
