<svg width="327" height="83" viewBox="0 0 327 83" fill="none" xmlns="http://www.w3.org/2000/svg">
<path d="M57.5347 55.642C57.5347 75.6269 44.9377 82.2508 25.8273 82.2508C15.537 82.2508 5.88012 80.355 -1.90735e-06 76.7825L0.211055 57.5378C4.83223 60.1662 13.9615 63.5348 24.0406 63.5348C33.592 63.5348 36.9543 61.0121 36.9543 56.6994C36.9543 51.858 33.6976 50.3852 27.5084 49.5468C8.08893 47.2357 -1.90735e-06 42.3943 -1.90735e-06 25.1435C-1.90735e-06 9.68279 9.44585 0.00756836 30.9686 0.00756836C41.9901 0.00756836 50.177 2.11482 54.1725 4.10877L53.8559 22.9381C48.8201 20.5212 39.8943 18.7311 32.5442 18.7311C24.5683 18.7311 20.4749 20.9366 20.4749 25.0453C20.4749 29.6752 23.9426 30.9366 30.3429 31.6692C48.5035 33.8746 57.5347 37.8777 57.5347 55.6496V55.642Z" fill="#E4DDCD"/>
<path d="M94.7981 0C120.829 0 126.709 16.1934 126.709 41.1254C126.709 56.4804 124.5 68.5801 116.63 75.5211L132.898 78.9955L132.582 98.0362L82.088 80.574C66.762 75.3172 62.8796 61.5332 62.8796 41.1329C62.8796 16.2085 68.7597 0.00755448 94.7906 0.00755448L94.7981 0ZM94.7981 18.3082C86.5056 18.3082 83.7766 23.565 83.7766 41.1329C83.7766 58.7009 86.5056 63.9577 94.7981 63.9577C103.091 63.9577 105.82 58.7009 105.82 41.1329C105.82 23.565 103.091 18.3082 94.7981 18.3082Z" fill="#E4DDCD"/>
<path d="M173.848 53.4366V1.68433H194.421V55.0076C194.421 76.8807 178.047 82.2508 163.874 82.2508C149.702 82.2508 133.328 76.8883 133.328 55.0076V1.68433H153.901V53.429C153.901 62.3716 158.628 64.0559 163.874 64.0559C169.121 64.0559 173.848 62.3716 173.848 53.429V53.4366Z" fill="#E4DDCD"/>
<path d="M221.077 66.2688L218.137 80.5739H196.509L215.823 1.2688H242.909L262.223 80.5739H240.595L237.655 66.2688H221.07H221.077ZM229.377 20.5135L224.236 50.5966H234.526L229.385 20.5135H229.377Z" fill="#E4DDCD"/>
<path d="M266.852 80.5665V1.68433H293.727C321.334 1.68433 327.952 18.8293 327.952 41.1254C327.952 63.4215 321.341 80.5665 293.727 80.5665H266.852ZM287.425 62.5831H293.825C304.115 62.5831 306.844 55.3248 306.844 41.1254C306.844 26.926 304.115 19.6677 293.825 19.6677H287.425V62.5831Z" fill="#E4DDCD"/>
</svg>
