<svg width="25" height="25" viewBox="0 0 25 25" fill="none" xmlns="http://www.w3.org/2000/svg">
<path d="M12.169 24.5C5.44889 24.5 0 19.1268 0 12.5C0 5.87321 5.44889 0.5 12.169 0.5C18.8891 0.5 24.338 5.87321 24.338 12.5C24.338 19.1268 18.8891 24.5 12.169 24.5ZM12.169 2.53571C6.58974 2.53571 2.06439 6.99821 2.06439 12.5C2.06439 18.0018 6.58974 22.4643 12.169 22.4643C17.7483 22.4643 22.2736 18.0018 22.2736 12.5C22.2736 6.99821 17.7483 2.53571 12.169 2.53571Z" fill="#222222"/>
<path d="M16.9144 9.11106L13.041 11.8727V18.5021C13.041 18.62 12.9432 18.7164 12.8236 18.7164H11.5171C11.3976 18.7164 11.2998 18.62 11.2998 18.5021V11.1253C11.2998 11.0557 11.3324 10.9914 11.3894 10.9512L15.8822 7.72088C15.98 7.65124 16.1158 7.67267 16.1864 7.76642L16.9633 8.81106C17.0339 8.91017 17.0122 9.04409 16.9144 9.11106Z" fill="#222222"/>
</svg>
