<svg width="19" height="19" viewBox="0 0 19 19" fill="none" xmlns="http://www.w3.org/2000/svg">
<path fill-rule="evenodd" clip-rule="evenodd" d="M17.119 2.777L12.0565 0.527L11.8125 0.5L11.5925 0.5215L6.1775 2.7255L1.37 0.527L1.125 0.5C0.8715 0.5 0.6235 0.586 0.422 0.7475C0.1555 0.9605 0 1.283 0 1.625V15.125C0 15.651 0.366 16.1085 0.88 16.224L5.919 18.474L6.164 18.5L6.383 18.4785L11.7995 16.274L16.63 18.474L16.875 18.5C17.1275 18.5 17.378 18.4145 17.579 18.252C17.844 18.0385 18.05 17.7155 18.05 17.375V3.875C18.05 3.348 17.633 2.891 17.119 2.777ZM6.75 3.6425L11.25 1.85V15.3505L6.75 17.1425V3.6425ZM1.125 1.625L5.625 3.6345V17.1345L1.125 15.125V1.625ZM16.875 17.375L12.375 15.3755V1.875L16.875 3.875V17.375Z" fill="white"/>
</svg>
