<svg width="18" height="19" viewBox="0 0 18 19" fill="none" xmlns="http://www.w3.org/2000/svg">
<path fill-rule="evenodd" clip-rule="evenodd" d="M7.29289 4.63951C7.05889 1.94401 4.25089 0.622012 4.13189 0.568012C4.02089 0.515012 3.89589 0.499512 3.77539 0.520012C0.533887 1.05851 0.046387 2.94701 0.026887 3.02601C-0.000113018 3.13651 0.00538698 3.25051 0.039387 3.35701C3.90539 15.3685 11.9414 17.594 14.5829 18.327L15.0804 18.471L15.2694 18.4995L15.5234 18.4445C15.6049 18.407 17.5129 17.5075 17.9794 14.5705C17.5499 14.4435 17.9794 14.311 17.9209 14.1955C17.8789 14.1145 16.8799 12.212 14.1114 11.54C13.9179 11.49 13.7194 11.5415 13.5709 11.6695C12.6974 12.416 11.4904 13.212 10.9699 13.2935C7.47889 11.5855 5.52989 8.30651 5.45639 7.68501C5.41389 7.33501 6.21389 6.10751 7.13389 5.10901C7.25039 4.98251 7.30889 4.81101 7.29289 4.63951Z" fill="white"/>
</svg>
