<svg width="25" height="19" viewBox="0 0 25 19" fill="none" xmlns="http://www.w3.org/2000/svg">
<path fill-rule="evenodd" clip-rule="evenodd" d="M23.1247 0.5H1.54133C0.690667 0.5 0 1.172 0 2V17C0 17.828 0.690667 18.5 1.54133 18.5H23.1247C23.9753 18.5 24.0667 17.828 24.0667 17V2C24.0667 1.172 23.9753 0.5 23.1247 0.5ZM8.75667 11.0413L12.3367 13.4087L15.8953 11.024L21.5767 17H2.63133L8.75667 11.0413ZM1.54133 15.9393V6.26733L7.45867 10.1813L1.54133 15.9393ZM17.184 10.1593L22.6667 6.18267V15.9393L17.184 10.1593ZM22.6667 2V4.42733L22.634 4.382L12.33 11.5913L1.54133 4.456V2H22.6667Z" fill="white"/>
</svg>
